The remake from 2008 is quite popular these days so I thought that some people would like to see the original movie and compare.

This is not my rip and the quality is not too good (around  V=7/10, A=7/10 + uncropped black bars) but it is watchable.

IMDB Rating: 6.7/10   (606 votes)
Director: Colin Eggleston
Writer: Everett De Roche
Genre: Horror | Mystery | Thriller
Tagline: Their crime was against nature... Nature found them guilty.

Plot:
When a suburban couple go camping for the weekend at a remote beach, they discover that nature isn't in an accommodating mood.

Runtime: 92 min
Country: Australia
Language: English
Color: Color (Eastmancolor)
Aspect Ratio: 2.35 : 1
Sound Mix: Mono

Format                           : AVI
Format/Info                      : Audio Video Interleave
File size                        : 699 MiB
Duration                         : 1h 32mn
Overall bit rate                 : 1 055 Kbps

Video
ID                               : 0
Format                           : MPEG-4 Visual
Format profile                   : Simple@L3
Format settings, BVOP            : No
Format settings, QPel            : No
Format settings, GMC             : No warppoints
Format settings, Matrix          : Default (H.263)
Codec ID                         : XVID
Codec ID/Hint                    : XviD
Duration                         : 1h 32mn
Bit rate                         : 820 Kbps
Width                            : 1 024 pixels
Height                           : 576 pixels
Display aspect ratio             : 16/9
Frame rate                       : 25.000 fps
Resolution                       : 24 bits
Colorimetry                      : 4:2:0
Scan type                        : Progressive
Bits/(Pixel*Frame)               : 0.056
Stream size                      : 543 MiB (78%)
Writing library                  : XviD 1.1.2 (UTC 2006-11-01)

Audio
ID                               : 1
Format                           : AC-3
Format/Info                      : Audio Coding 3
Codec ID                         : 2000
Duration                         : 1h 32mn
Bit rate mode                    : Constant
Bit rate                         : 224 Kbps
Channel(s)                       : 2 channels
Channel positions                : L R
Sampling rate                    : 48.0 KHz
Stream size                      : 148 MiB (21%)
Alignment                        : Aligned on interleaves
Interleave, duration             : 32 ms (0.80 video frame)
Interleave, preload duration     : 32 ms